<?xml version="1.0" encoding="utf-8"?>
<!-- Generator: Adobe Illustrator 16.0.0, SVG Export Plug-In . SVG Version: 6.00 Build 0)  -->
<!DOCTYPE svg PUBLIC "-//W3C//DTD SVG 1.1//EN" "http://www.w3.org/Graphics/SVG/1.1/DTD/svg11.dtd">
<svg version="1.1" id="Calque_1" xmlns="http://www.w3.org/2000/svg" xmlns:xlink="http://www.w3.org/1999/xlink" x="0px" y="0px"
	 width="32px" height="32px" viewBox="0 0 32 32" enable-background="new 0 0 32 32" xml:space="preserve">
<g>
	<defs>
		<rect id="SVGID_1_" x="0.065" y="4.333" width="31.938" height="24.062"/>
	</defs>
	<clipPath id="SVGID_2_">
		<use xlink:href="#SVGID_1_"  overflow="visible"/>
	</clipPath>
	<path clip-path="url(#SVGID_2_)" fill="#762A8D" d="M10.087,28.395c-0.571,0-1.14-0.217-1.577-0.65l-7.788-7.752
		c-0.875-0.871-0.878-2.287-0.007-3.161c0.871-0.875,2.287-0.88,3.162-0.008l7.787,7.751c0.875,0.871,0.879,2.285,0.008,3.16
		C11.235,28.176,10.662,28.395,10.087,28.395z"/>
	<path clip-path="url(#SVGID_2_)" fill="#762A8D" d="M10.124,28.355c-0.574,0-1.148-0.219-1.584-0.658
		c-0.872-0.875-0.868-2.291,0.007-3.162L28.191,4.984c0.875-0.871,2.289-0.868,3.162,0.007c0.869,0.875,0.866,2.291-0.009,3.161
		L11.701,27.705C11.265,28.141,10.693,28.355,10.124,28.355z"/>
</g>
<g display="none">
	<defs>
		<rect id="SVGID_3_" x="1.88" y="1.909" width="28.87" height="28.754"/>
	</defs>
	<clipPath id="SVGID_4_" display="inline">
		<use xlink:href="#SVGID_3_"  overflow="visible"/>
	</clipPath>
	<g display="inline" clip-path="url(#SVGID_4_)">
		<path fill="#762A8D" d="M28.753,30.663c-0.509,0-1.02-0.192-1.409-0.581L2.468,5.321C1.687,4.543,1.684,3.278,2.461,2.496
			C3.24,1.715,4.504,1.712,5.286,2.49l24.877,24.761c0.782,0.78,0.784,2.042,0.004,2.825C29.778,30.468,29.265,30.663,28.753,30.663
			z"/>
	</g>
	<g display="inline" clip-path="url(#SVGID_4_)">
		<path fill="#762A8D" d="M3.876,30.663c-0.513,0-1.025-0.195-1.416-0.587c-0.777-0.783-0.774-2.045,0.007-2.825L27.344,2.49
			c0.784-0.778,2.047-0.775,2.823,0.006c0.78,0.782,0.778,2.047-0.004,2.825L5.286,30.082C4.896,30.471,4.386,30.663,3.876,30.663z"
			/>
	</g>
</g>
<g display="none">
	<g display="inline">
		<path d="M23.426,6.176C20.6,6.443,20.879,8.862,21.129,9.88c2.404,1.57,3.933,4.306,3.933,7.532c0,5.079-4.086,8.932-9.128,8.932
			c-5.042,0-9.127-3.853-9.127-8.932c0-3.038,1.577-5.638,3.918-7.243c0.25-0.674,1.029-3.29-1.67-4.014
			c-3.956,2.303-6.723,6.417-6.723,11.247c0,7.442,6.219,13.209,13.605,13.209c7.385,0,13.935-5.767,13.935-13.209
			C29.872,12.587,27.263,8.482,23.426,6.176z M16.202,18.795c0.923,0,2.07-1.087,2.07-2.017V3.834c0-1.597-1.214-2.084-2.135-2.084
			C14.021,1.75,14,3.706,14,3.834v12.944C14,17.708,15.278,18.795,16.202,18.795z"/>
	</g>
</g>
<polygon display="none" points="0.1,13.329 16.432,1.688 32,13.329 27.168,13.329 27.168,30.663 20.704,30.663 20.704,20.214 
	11.946,20.214 11.946,30.667 4.759,30.663 4.759,13.329 "/>
</svg>
