<?xml version="1.0" encoding="utf-8"?>
<!-- Generator: Adobe Illustrator 16.0.0, SVG Export Plug-In . SVG Version: 6.00 Build 0)  -->
<!DOCTYPE svg PUBLIC "-//W3C//DTD SVG 1.1//EN" "http://www.w3.org/Graphics/SVG/1.1/DTD/svg11.dtd">
<svg version="1.1" id="Calque_1" xmlns="http://www.w3.org/2000/svg" xmlns:xlink="http://www.w3.org/1999/xlink" x="0px" y="0px"
	 width="32px" height="32px" viewBox="0 0 32 32" enable-background="new 0 0 32 32" xml:space="preserve">
<g display="none">
	<defs>
		<rect id="SVGID_1_" x="0.065" y="4.333" width="31.938" height="24.062"/>
	</defs>
	<clipPath id="SVGID_2_" display="inline">
		<use xlink:href="#SVGID_1_"  overflow="visible"/>
	</clipPath>
	<path display="inline" clip-path="url(#SVGID_2_)" fill="#762A8D" d="M10.087,28.395c-0.571,0-1.14-0.217-1.577-0.65l-7.788-7.752
		c-0.875-0.871-0.878-2.287-0.007-3.161c0.871-0.875,2.287-0.88,3.162-0.008l7.787,7.751c0.875,0.871,0.879,2.285,0.008,3.16
		C11.235,28.176,10.662,28.395,10.087,28.395z"/>
	<path display="inline" clip-path="url(#SVGID_2_)" fill="#762A8D" d="M10.124,28.355c-0.574,0-1.148-0.219-1.584-0.658
		c-0.872-0.875-0.868-2.291,0.007-3.162L28.191,4.984c0.875-0.871,2.289-0.868,3.162,0.007c0.869,0.875,0.866,2.291-0.009,3.161
		L11.701,27.705C11.265,28.141,10.693,28.355,10.124,28.355z"/>
</g>
<g display="none">
	<defs>
		<rect id="SVGID_3_" x="1.88" y="1.909" width="28.87" height="28.754"/>
	</defs>
	<clipPath id="SVGID_4_" display="inline">
		<use xlink:href="#SVGID_3_"  overflow="visible"/>
	</clipPath>
	<g display="inline" clip-path="url(#SVGID_4_)">
		<path fill="#762A8D" d="M28.753,30.663c-0.509,0-1.02-0.192-1.409-0.581L2.468,5.321C1.687,4.543,1.684,3.278,2.461,2.496
			C3.24,1.715,4.504,1.712,5.286,2.49l24.877,24.761c0.782,0.78,0.784,2.042,0.004,2.825C29.778,30.468,29.265,30.663,28.753,30.663
			z"/>
	</g>
	<g display="inline" clip-path="url(#SVGID_4_)">
		<path fill="#762A8D" d="M3.876,30.663c-0.513,0-1.025-0.195-1.416-0.587c-0.777-0.783-0.774-2.045,0.007-2.825L27.344,2.49
			c0.784-0.778,2.047-0.775,2.823,0.006c0.78,0.782,0.778,2.047-0.004,2.825L5.286,30.082C4.896,30.471,4.386,30.663,3.876,30.663z"
			/>
	</g>
</g>
<g display="none">
	<g display="inline">
		<path d="M23.426,6.176C20.6,6.443,20.879,8.862,21.129,9.88c2.404,1.57,3.933,4.306,3.933,7.532c0,5.079-4.086,8.932-9.128,8.932
			c-5.042,0-9.127-3.853-9.127-8.932c0-3.038,1.577-5.638,3.918-7.243c0.25-0.674,1.029-3.29-1.67-4.014
			c-3.956,2.303-6.723,6.417-6.723,11.247c0,7.442,6.219,13.209,13.605,13.209c7.385,0,13.935-5.767,13.935-13.209
			C29.872,12.587,27.263,8.482,23.426,6.176z M16.202,18.795c0.923,0,2.07-1.087,2.07-2.017V3.834c0-1.597-1.214-2.084-2.135-2.084
			C14.021,1.75,14,3.706,14,3.834v12.944C14,17.708,15.278,18.795,16.202,18.795z"/>
	</g>
</g>
<polygon display="none" points="0.1,13.329 16.432,1.688 32,13.329 27.168,13.329 27.168,30.663 20.704,30.663 20.704,20.214 
	11.946,20.214 11.946,30.667 4.759,30.663 4.759,13.329 "/>
<g display="none">
	<path display="inline" fill="none" d="M15.717,9.261c-6.467,0-11.161,5.235-12.653,7.139c4.02,4.807,8.293,7.243,12.712,7.243
		c6.471,0,11.622-5.207,13.333-7.17C24.649,11.687,20.146,9.261,15.717,9.261z M16.084,22.205c-3.207,0-5.807-2.6-5.807-5.807
		s2.6-5.807,5.807-5.807s5.807,2.6,5.807,5.807S19.291,22.205,16.084,22.205z"/>
	<path display="inline" d="M31.529,15.66c-5.143-5.797-10.463-8.736-15.812-8.736c-9.136,0-14.867,8.505-15.106,8.867l-0.468,0.708
		l0.528,0.664c4.648,5.851,9.731,8.817,15.106,8.817c9.093,0,15.544-8.483,15.815-8.845l0.57-0.762L31.529,15.66z M15.777,23.643
		c-4.419,0-8.693-2.436-12.712-7.243c1.492-1.904,6.186-7.139,12.653-7.139c4.429,0,8.932,2.425,13.393,7.211
		C27.398,18.436,22.248,23.643,15.777,23.643z"/>
	<path display="inline" d="M16.084,10.592c-3.207,0-5.807,2.6-5.807,5.807s2.6,5.807,5.807,5.807s5.807-2.6,5.807-5.807
		S19.291,10.592,16.084,10.592z M19.115,15.559c-0.807,0-1.461-0.654-1.461-1.461c0-0.807,0.654-1.46,1.461-1.46
		s1.461,0.654,1.461,1.46C20.576,14.905,19.922,15.559,19.115,15.559z"/>
</g>
<g display="none">
	<line display="inline" fill="#FFFFFF" x1="22.688" y1="5.125" x2="7.375" y2="28.188"/>
	
		<rect x="14.032" y="2.814" transform="matrix(0.8333 0.5529 -0.5529 0.8333 11.7155 -5.5333)" display="inline" width="1.999" height="27.683"/>
</g>
<g>
	<g>
		<g>
		</g>
	</g>
	<g>
		<g>
		</g>
	</g>
	<g>
	</g>
	<g>
		<g>
		</g>
	</g>
	<g>
		<g>
			<circle fill="none" cx="19.115" cy="14.098" r="1.461"/>
		</g>
		<g>
			<path fill="none" d="M10.277,16.398c0-3.207,2.6-5.807,5.807-5.807c0.44,0,0.868,0.053,1.28,0.146l0.804-1.229
				c-0.818-0.164-1.636-0.248-2.451-0.248c-6.467,0-11.161,5.235-12.653,7.139c2.206,2.638,4.489,4.557,6.83,5.756l1.518-2.32
				C10.702,18.873,10.277,17.687,10.277,16.398z"/>
		</g>
		<g>
			<path fill="none" d="M21.891,16.398c0,3.207-2.6,5.807-5.807,5.807c-1.545,0-2.946-0.607-3.986-1.592l-1.292,1.975
				c1.632,0.7,3.291,1.055,4.971,1.055c6.471,0,11.622-5.207,13.333-7.17c-3.297-3.537-6.616-5.78-9.912-6.712l-0.846,1.292
				C20.433,11.936,21.891,13.997,21.891,16.398z"/>
		</g>
		<g>
			<path d="M31.529,15.66c-3.597-4.054-7.279-6.705-10.999-7.936L19.198,9.76c3.296,0.933,6.615,3.176,9.912,6.712
				c-1.712,1.963-6.862,7.17-13.333,7.17c-1.68,0-3.339-0.354-4.971-1.055l-1.295,1.98c2.037,0.934,4.128,1.411,6.266,1.411
				c9.093,0,15.544-8.483,15.815-8.845l0.57-0.762L31.529,15.66z"/>
		</g>
		<g>
			<path d="M3.064,16.4c1.492-1.904,6.186-7.139,12.653-7.139c0.815,0,1.632,0.083,2.451,0.248l1.362-2.081
				c-1.269-0.332-2.54-0.504-3.813-0.504c-9.136,0-14.867,8.505-15.106,8.867l-0.468,0.708l0.528,0.664
				c2.525,3.178,5.179,5.498,7.937,6.961l1.287-1.967C7.553,20.957,5.271,19.038,3.064,16.4z"/>
		</g>
		<g>
			<path d="M16.084,10.592c-3.207,0-5.807,2.6-5.807,5.807c0,1.288,0.425,2.475,1.135,3.438l5.952-9.098
				C16.952,10.645,16.524,10.592,16.084,10.592z"/>
		</g>
		<g>
			<path d="M16.084,22.205c3.207,0,5.807-2.6,5.807-5.807c0-2.402-1.458-4.462-3.538-5.346l-6.254,9.561
				C13.138,21.598,14.539,22.205,16.084,22.205z M19.115,12.637c0.807,0,1.461,0.654,1.461,1.46c0,0.807-0.654,1.461-1.461,1.461
				s-1.461-0.654-1.461-1.461C17.654,13.291,18.309,12.637,19.115,12.637z"/>
		</g>
		<g>
			<line fill="#FFFFFF" x1="24.375" y1="3.195" x2="8.13" y2="28.25"/>
			<rect x="15.253" y="0.793" transform="matrix(0.839 0.5441 -0.5441 0.839 11.17 -6.3118)" width="2" height="29.86"/>
		</g>
	</g>
</g>
</svg>
