<?xml version="1.0" encoding="utf-8"?>
<!-- Generator: Adobe Illustrator 16.0.0, SVG Export Plug-In . SVG Version: 6.00 Build 0)  -->
<!DOCTYPE svg PUBLIC "-//W3C//DTD SVG 1.1//EN" "http://www.w3.org/Graphics/SVG/1.1/DTD/svg11.dtd">
<svg version="1.1" id="Calque_1" xmlns="http://www.w3.org/2000/svg" xmlns:xlink="http://www.w3.org/1999/xlink" x="0px" y="0px"
	 width="32px" height="32px" viewBox="0 0 32 32" enable-background="new 0 0 32 32" xml:space="preserve">
<g display="none">
	<defs>
		<rect id="SVGID_1_" x="7.35" y="9.811" width="18.504" height="13.94"/>
	</defs>
	<clipPath id="SVGID_2_" display="inline">
		<use xlink:href="#SVGID_1_"  overflow="visible"/>
	</clipPath>
	<path display="inline" clip-path="url(#SVGID_2_)" fill="#762A8D" d="M13.157,23.751c-0.331,0-0.661-0.126-0.914-0.377
		l-4.512-4.491c-0.507-0.505-0.509-1.325-0.004-1.831c0.505-0.507,1.325-0.51,1.832-0.005l4.512,4.49
		c0.507,0.505,0.509,1.325,0.004,1.832C13.822,23.624,13.49,23.751,13.157,23.751z"/>
	<path display="inline" clip-path="url(#SVGID_2_)" fill="#762A8D" d="M13.178,23.729c-0.332,0-0.665-0.127-0.917-0.382
		c-0.505-0.507-0.503-1.327,0.004-1.831l11.381-11.328c0.507-0.504,1.326-0.503,1.832,0.004c0.504,0.507,0.502,1.327-0.005,1.831
		L14.092,23.352C13.839,23.604,13.508,23.729,13.178,23.729z"/>
</g>
<g display="none">
	<defs>
		<rect id="SVGID_3_" x="7.529" y="7.744" width="18.147" height="18.075"/>
	</defs>
	<clipPath id="SVGID_4_" display="inline">
		<use xlink:href="#SVGID_3_"  overflow="visible"/>
	</clipPath>
	<g display="inline" clip-path="url(#SVGID_4_)">
		<path fill="#762A8D" d="M24.421,25.818c-0.32,0-0.642-0.122-0.887-0.366L7.898,9.889C7.407,9.399,7.405,8.604,7.894,8.113
			C8.383,7.622,9.178,7.62,9.669,8.109l15.637,15.565c0.492,0.489,0.493,1.283,0.003,1.775
			C25.065,25.695,24.742,25.818,24.421,25.818z"/>
	</g>
	<g display="inline" clip-path="url(#SVGID_4_)">
		<path fill="#762A8D" d="M8.784,25.818c-0.322,0-0.645-0.123-0.89-0.369c-0.489-0.492-0.487-1.286,0.004-1.775L23.534,8.109
			c0.493-0.489,1.287-0.487,1.775,0.004c0.49,0.492,0.489,1.287-0.003,1.776L9.669,25.452C9.424,25.696,9.104,25.818,8.784,25.818z"
			/>
	</g>
</g>
<g display="none">
	<g display="inline">
		<path d="M21.233,10.455c-1.787,0.169-1.611,1.698-1.453,2.342c1.521,0.993,2.487,2.723,2.487,4.763
			c0,3.212-2.584,5.648-5.772,5.648s-5.771-2.437-5.771-5.648c0-1.921,0.997-3.565,2.478-4.58c0.159-0.426,0.651-2.08-1.056-2.538
			c-2.501,1.456-4.251,4.058-4.251,7.112c0,4.706,3.933,8.353,8.604,8.353c4.67,0,8.812-3.646,8.812-8.353
			C25.31,14.509,23.659,11.913,21.233,10.455z M16.665,18.435c0.584,0,1.309-0.688,1.309-1.275V8.974c0-1.01-0.768-1.318-1.35-1.318
			c-1.338,0-1.352,1.237-1.352,1.318v8.185C15.272,17.747,16.081,18.435,16.665,18.435z"/>
	</g>
</g>
<polygon points="0.1,13.329 16.432,1.688 32,13.329 27.168,13.329 27.168,30.663 20.704,30.663 20.704,20.214 11.946,20.214 
	11.946,30.667 4.759,30.663 4.759,13.329 "/>
</svg>
